<svg xmlns="http://www.w3.org/2000/svg" viewBox="0 0 24 24" fill="none" stroke="currentColor" stroke-width="2" stroke-linecap="round" stroke-linejoin="round">
  <ellipse cx="12" cy="12" rx="6" ry="4"/>
  <path d="M6 12c-2 0-3-1-3-2"/>
  <path d="M6 12c-2 0-3 1-3 2"/>
  <path d="M18 12c2 0 3-1 3-2"/>
  <path d="M18 12c2 0 3 1 3 2"/>
  <path d="M9 8c-1-2-2-3-2-4"/>
  <path d="M15 8c1-2 2-3 2-4"/>
  <path d="M9 16c-1 2-2 3-2 4"/>
  <path d="M15 16c1 2 2 3 2 4"/>
  <circle cx="10" cy="11" r="0.5" fill="currentColor"/>
  <circle cx="14" cy="13" r="0.5" fill="currentColor"/>
</svg>
